<svg width="48" height="28" viewBox="0 0 48 28" fill="none" xmlns="http://www.w3.org/2000/svg">
<path d="M6.08 22.2C5.12 22.2 4.29333 22.04 3.6 21.72C2.92 21.4 2.39333 20.94 2.02 20.34C1.64667 19.74 1.45333 19.0267 1.44 18.2H3.24C3.24 18.9333 3.48667 19.5133 3.98 19.94C4.48667 20.3667 5.18667 20.58 6.08 20.58C6.92 20.58 7.57333 20.3733 8.04 19.96C8.52 19.5467 8.76 18.9733 8.76 18.24C8.76 17.6533 8.6 17.14 8.28 16.7C7.97333 16.26 7.52667 15.9533 6.94 15.78L4.96 15.16C3.96 14.8533 3.18667 14.34 2.64 13.62C2.10667 12.9 1.84 12.0533 1.84 11.08C1.84 10.2933 2.01333 9.61333 2.36 9.04C2.72 8.45333 3.22 8 3.86 7.68C4.5 7.34667 5.25333 7.18 6.12 7.18C7.4 7.18 8.42667 7.54 9.2 8.26C9.97333 8.96667 10.3667 9.91333 10.38 11.1H8.58C8.58 10.38 8.36 9.82 7.92 9.42C7.49333 9.00667 6.88667 8.8 6.1 8.8C5.32667 8.8 4.72 8.98667 4.28 9.36C3.85333 9.73333 3.64 10.2533 3.64 10.92C3.64 11.52 3.8 12.04 4.12 12.48C4.44 12.92 4.9 13.2333 5.5 13.42L7.5 14.06C8.47333 14.3667 9.22667 14.8867 9.76 15.62C10.2933 16.3533 10.56 17.2133 10.56 18.2C10.56 19 10.3733 19.7 10 20.3C9.62667 20.9 9.1 21.3667 8.42 21.7C7.75333 22.0333 6.97333 22.2 6.08 22.2ZM25.8244 22V7.4H29.6044C30.551 7.4 31.3644 7.58 32.0444 7.94C32.7377 8.3 33.271 8.80667 33.6444 9.46C34.031 10.1133 34.2244 10.8867 34.2244 11.78V17.6C34.2244 18.4933 34.031 19.2733 33.6444 19.94C33.271 20.5933 32.7377 21.1 32.0444 21.46C31.3644 21.82 30.551 22 29.6044 22H25.8244ZM27.6244 20.4H29.6044C30.4844 20.4 31.171 20.1533 31.6644 19.66C32.171 19.1667 32.4244 18.48 32.4244 17.6V11.78C32.4244 10.9133 32.171 10.2333 31.6644 9.74C31.171 9.24667 30.4844 9 29.6044 9H27.6244V20.4ZM36.9766 22L40.7766 7.4H43.1966L46.9766 22H45.1566L44.1966 18.12H39.7766L38.8166 22H36.9766ZM40.1366 16.6H43.8166L42.6966 12.1C42.4832 11.2467 42.3166 10.5333 42.1966 9.96C42.0766 9.38667 42.0032 9.01333 41.9766 8.84C41.9499 9.01333 41.8766 9.38667 41.7566 9.96C41.6366 10.5333 41.4699 11.24 41.2566 12.08L40.1366 16.6Z" fill="#00CDB8"/>
<circle cx="17.5" cy="14.5" r="6.5" fill="#00CDB8"/>
<circle cx="14.5" cy="3.5" r="3.5" fill="#00CDB8" fill-opacity="0.7"/>
<circle cx="42" cy="18" r="3" fill="#00CDB8"/>
<circle cx="21" cy="5" r="2" fill="#00CDB8" fill-opacity="0.5"/>
<circle cx="20" cy="1" r="1" fill="#00CDB8" fill-opacity="0.4"/>
<circle cx="20" cy="12" r="1" fill="#01E3CC"/>
<circle cx="42.5" cy="16.5" r="0.5" fill="#01E3CC"/>
<circle cx="15.5" cy="1.5" r="0.5" fill="#00F1D8"/>
<circle cx="21.25" cy="4.25" r="0.25" fill="#00F1D8"/>
<circle cx="20.25" cy="1.25" r="0.25" fill="#7EFFF2"/>
</svg>
